<svg width="32" height="32" viewBox="0 0 32 32" fill="none" xmlns="http://www.w3.org/2000/svg">
<path d="M16 18.6667C9.32 18.6667 3.88 23.1467 3.88 28.6667C3.88 29.04 4.17334 29.3333 4.54667 29.3333H27.4533C27.8267 29.3333 28.12 29.04 28.12 28.6667C28.12 23.1467 22.68 18.6667 16 18.6667Z" fill="white"/>
<path d="M22.2933 13.8L21.0133 12.52C21.68 11.52 22.0667 10.32 22.0667 9.02666C22.0667 5.50666 19.2133 2.66666 15.7067 2.66666C12.2 2.66666 9.33333 5.51999 9.33333 9.02666C9.33333 12.5333 12.1867 15.3867 15.6933 15.3867C16.9867 15.3867 18.1867 15 19.1867 14.3333L20.4667 15.6133C20.72 15.8667 21.0533 15.9867 21.3733 15.9867C21.7067 15.9867 22.04 15.8667 22.28 15.6133C22.7867 15.12 22.7867 14.3067 22.2933 13.8Z" fill="white"/>
</svg>
